<svg width="32" height="32" viewBox="0 0 32 32" fill="none" xmlns="http://www.w3.org/2000/svg">
<path d="M26.6667 5.33325H5.33332C3.86266 5.33325 2.66666 6.52925 2.66666 7.99992V23.9999C2.66666 25.4706 3.86266 26.6666 5.33332 26.6666H26.6667C28.1373 26.6666 29.3333 25.4706 29.3333 23.9999V7.99992C29.3333 6.52925 28.1373 5.33325 26.6667 5.33325ZM26.6667 7.99992V8.68125L16 16.9786L5.33332 8.68259V7.99992H26.6667ZM5.33332 23.9999V12.0586L15.1813 19.7186C15.4148 19.902 15.7031 20.0017 16 20.0017C16.2969 20.0017 16.5852 19.902 16.8187 19.7186L26.6667 12.0586L26.6693 23.9999H5.33332Z" fill="white"/>
</svg>
