<svg width="127" height="32" viewBox="0 0 127 32" fill="none" xmlns="http://www.w3.org/2000/svg">
<path d="M22.6667 10.6667C10.6667 13.3333 7.86667 21.56 5.09334 28.4533L7.61334 29.3333L8.88 26.2667C9.52 26.4933 10.1867 26.6667 10.6667 26.6667C25.3333 26.6667 29.3333 4 29.3333 4C28 6.66667 18.6667 7 12 8.33333C5.33334 9.66667 2.66667 15.3333 2.66667 18C2.66667 20.6667 5 23 5 23C9.33334 10.6667 22.6667 10.6667 22.6667 10.6667Z" fill="#228B22"/>
<path d="M35.4381 10.54V15.2H40.5181V16.7H35.4381V21.5H41.1181V23H33.6181V9.04H41.1181V10.54H35.4381ZM43.192 17.5C43.192 16.3667 43.4187 15.38 43.872 14.54C44.3254 13.6867 44.952 13.0267 45.752 12.56C46.5654 12.0933 47.492 11.86 48.532 11.86C49.8787 11.86 50.9854 12.1867 51.852 12.84C52.732 13.4933 53.312 14.4 53.592 15.56H51.632C51.4454 14.8933 51.0787 14.3667 50.532 13.98C49.9987 13.5933 49.332 13.4 48.532 13.4C47.492 13.4 46.652 13.76 46.012 14.48C45.372 15.1867 45.052 16.1933 45.052 17.5C45.052 18.82 45.372 19.84 46.012 20.56C46.652 21.28 47.492 21.64 48.532 21.64C49.332 21.64 49.9987 21.4533 50.532 21.08C51.0654 20.7067 51.432 20.1733 51.632 19.48H53.592C53.2987 20.6 52.712 21.5 51.832 22.18C50.952 22.8467 49.852 23.18 48.532 23.18C47.492 23.18 46.5654 22.9467 45.752 22.48C44.952 22.0133 44.3254 21.3533 43.872 20.5C43.4187 19.6467 43.192 18.6467 43.192 17.5ZM60.8005 23.18C59.7738 23.18 58.8405 22.9467 58.0005 22.48C57.1738 22.0133 56.5205 21.3533 56.0405 20.5C55.5738 19.6333 55.3405 18.6333 55.3405 17.5C55.3405 16.38 55.5805 15.3933 56.0605 14.54C56.5538 13.6733 57.2205 13.0133 58.0605 12.56C58.9005 12.0933 59.8405 11.86 60.8805 11.86C61.9205 11.86 62.8605 12.0933 63.7005 12.56C64.5405 13.0133 65.2005 13.6667 65.6805 14.52C66.1738 15.3733 66.4205 16.3667 66.4205 17.5C66.4205 18.6333 66.1671 19.6333 65.6605 20.5C65.1671 21.3533 64.4938 22.0133 63.6405 22.48C62.7871 22.9467 61.8405 23.18 60.8005 23.18ZM60.8005 21.58C61.4538 21.58 62.0671 21.4267 62.6405 21.12C63.2138 20.8133 63.6738 20.3533 64.0205 19.74C64.3805 19.1267 64.5605 18.38 64.5605 17.5C64.5605 16.62 64.3871 15.8733 64.0405 15.26C63.6938 14.6467 63.2405 14.1933 62.6805 13.9C62.1205 13.5933 61.5138 13.44 60.8605 13.44C60.1938 13.44 59.5805 13.5933 59.0205 13.9C58.4738 14.1933 58.0338 14.6467 57.7005 15.26C57.3671 15.8733 57.2005 16.62 57.2005 17.5C57.2005 18.3933 57.3605 19.1467 57.6805 19.76C58.0138 20.3733 58.4538 20.8333 59.0005 21.14C59.5471 21.4333 60.1471 21.58 60.8005 21.58ZM79.5534 9.06V23H77.7334V16.68H70.6334V23H68.8134V9.06H70.6334V15.18H77.7334V9.06H79.5534ZM87.4411 23.18C86.4144 23.18 85.4811 22.9467 84.6411 22.48C83.8144 22.0133 83.1611 21.3533 82.6811 20.5C82.2144 19.6333 81.9811 18.6333 81.9811 17.5C81.9811 16.38 82.2211 15.3933 82.7011 14.54C83.1944 13.6733 83.8611 13.0133 84.7011 12.56C85.5411 12.0933 86.4811 11.86 87.5211 11.86C88.5611 11.86 89.5011 12.0933 90.3411 12.56C91.1811 13.0133 91.8411 13.6667 92.3211 14.52C92.8144 15.3733 93.0611 16.3667 93.0611 17.5C93.0611 18.6333 92.8078 19.6333 92.3011 20.5C91.8078 21.3533 91.1344 22.0133 90.2811 22.48C89.4278 22.9467 88.4811 23.18 87.4411 23.18ZM87.4411 21.58C88.0944 21.58 88.7078 21.4267 89.2811 21.12C89.8544 20.8133 90.3144 20.3533 90.6611 19.74C91.0211 19.1267 91.2011 18.38 91.2011 17.5C91.2011 16.62 91.0278 15.8733 90.6811 15.26C90.3344 14.6467 89.8811 14.1933 89.3211 13.9C88.7611 13.5933 88.1544 13.44 87.5011 13.44C86.8344 13.44 86.2211 13.5933 85.6611 13.9C85.1144 14.1933 84.6744 14.6467 84.3411 15.26C84.0078 15.8733 83.8411 16.62 83.8411 17.5C83.8411 18.3933 84.0011 19.1467 84.3211 19.76C84.6544 20.3733 85.0944 20.8333 85.6411 21.14C86.1878 21.4333 86.7878 21.58 87.4411 21.58ZM108.634 11.84C109.487 11.84 110.247 12.02 110.914 12.38C111.581 12.7267 112.107 13.2533 112.494 13.96C112.881 14.6667 113.074 15.5267 113.074 16.54V23H111.274V16.8C111.274 15.7067 111.001 14.8733 110.454 14.3C109.921 13.7133 109.194 13.42 108.274 13.42C107.327 13.42 106.574 13.7267 106.014 14.34C105.454 14.94 105.174 15.8133 105.174 16.96V23H103.374V16.8C103.374 15.7067 103.101 14.8733 102.554 14.3C102.021 13.7133 101.294 13.42 100.374 13.42C99.4274 13.42 98.6741 13.7267 98.1141 14.34C97.5541 14.94 97.2741 15.8133 97.2741 16.96V23H95.4541V12.04H97.2741V13.62C97.6341 13.0467 98.1141 12.6067 98.7141 12.3C99.3274 11.9933 100.001 11.84 100.734 11.84C101.654 11.84 102.467 12.0467 103.174 12.46C103.881 12.8733 104.407 13.48 104.754 14.28C105.061 13.5067 105.567 12.9067 106.274 12.48C106.981 12.0533 107.767 11.84 108.634 11.84ZM126.06 17.1C126.06 17.4467 126.04 17.8133 126 18.2H117.24C117.306 19.28 117.673 20.1267 118.34 20.74C119.02 21.34 119.84 21.64 120.8 21.64C121.586 21.64 122.24 21.46 122.76 21.1C123.293 20.7267 123.666 20.2333 123.88 19.62H125.84C125.546 20.6733 124.96 21.5333 124.08 22.2C123.2 22.8533 122.106 23.18 120.8 23.18C119.76 23.18 118.826 22.9467 118 22.48C117.186 22.0133 116.546 21.3533 116.08 20.5C115.613 19.6333 115.38 18.6333 115.38 17.5C115.38 16.3667 115.606 15.3733 116.06 14.52C116.513 13.6667 117.146 13.0133 117.96 12.56C118.786 12.0933 119.733 11.86 120.8 11.86C121.84 11.86 122.76 12.0867 123.56 12.54C124.36 12.9933 124.973 13.62 125.4 14.42C125.84 15.2067 126.06 16.1 126.06 17.1ZM124.18 16.72C124.18 16.0267 124.026 15.4333 123.72 14.94C123.413 14.4333 122.993 14.0533 122.46 13.8C121.94 13.5333 121.36 13.4 120.72 13.4C119.8 13.4 119.013 13.6933 118.36 14.28C117.72 14.8667 117.353 15.68 117.26 16.72H124.18Z" fill="#FEFEFC"/>
</svg>
