<svg width="24" height="24" viewBox="0 0 24 24" fill="none" xmlns="http://www.w3.org/2000/svg">
<path d="M3 5.25004C2.5875 5.25004 2.25 5.58754 2.25 6.00004C2.25 6.41254 2.5875 6.75004 3 6.75004H4.66425L6.633 14.625C6.7995 15.2925 7.398 15.75 8.08575 15.75H17.4375C18.114 15.75 18.6885 15.3015 18.867 14.6483L20.8125 7.50004H19.242L17.4375 14.25H8.08575L6.117 6.37504C6.03625 6.05183 5.84916 5.76516 5.5858 5.56112C5.32245 5.35707 4.99814 5.24751 4.665 5.25004H3ZM16.5 15.75C15.2663 15.75 14.25 16.7663 14.25 18C14.25 19.2338 15.2663 20.25 16.5 20.25C17.7337 20.25 18.75 19.2338 18.75 18C18.75 16.7663 17.7337 15.75 16.5 15.75ZM9.75 15.75C8.51625 15.75 7.5 16.7663 7.5 18C7.5 19.2338 8.51625 20.25 9.75 20.25C10.9837 20.25 12 19.2338 12 18C12 16.7663 10.9837 15.75 9.75 15.75ZM12 5.25004V7.50004H9.75V9.00004H12V11.25H13.5V9.00004H15.75V7.50004H13.5V5.25004H12ZM9.75 17.25C10.1723 17.25 10.5 17.5785 10.5 18C10.5 18.4215 10.1715 18.75 9.75 18.75C9.3285 18.75 9 18.4215 9 18C9 17.5785 9.3285 17.25 9.75 17.25ZM16.5 17.25C16.9223 17.25 17.25 17.5785 17.25 18C17.25 18.4215 16.9215 18.75 16.5 18.75C16.0785 18.75 15.75 18.4215 15.75 18C15.75 17.5785 16.0785 17.25 16.5 17.25Z" fill="#228B22"/>
</svg>
